<?xml version="1.0" standalone="no"?>
<!DOCTYPE svg PUBLIC "-//W3C//DTD SVG 20010904//EN"
 "http://www.w3.org/TR/2001/REC-SVG-20010904/DTD/svg10.dtd">
<svg version="1.0" xmlns="http://www.w3.org/2000/svg"
 width="468.000000pt" height="468.000000pt" viewBox="0 0 468.000000 468.000000"
 preserveAspectRatio="xMidYMid meet">
<metadata>
Created by potrace 1.10, written by Peter Selinger 2001-2011
</metadata>
<g transform="translate(0.000000,468.000000) scale(0.100000,-0.100000)"
fill="#fff" stroke="none">
<path d="M1903 3058 c-30 -6 -64 -29 -125 -82 -128 -113 -149 -140 -164 -204
-22 -93 -6 -260 37 -387 6 -16 20 -57 31 -90 11 -33 33 -79 49 -103 16 -24 29
-46 29 -49 0 -25 111 -176 222 -301 76 -87 290 -292 304 -292 4 0 27 -17 52
-37 46 -39 99 -74 142 -93 14 -6 34 -20 45 -30 11 -10 49 -28 85 -41 36 -12
70 -25 75 -29 12 -9 98 -34 186 -55 36 -8 103 -15 150 -15 112 0 161 24 262
129 117 122 134 156 129 263 -2 33 -14 50 -98 138 -53 55 -101 100 -106 100
-6 0 -27 13 -47 29 -20 15 -46 31 -57 35 -12 4 -29 15 -39 26 -10 11 -25 20
-34 20 -9 0 -33 8 -54 19 -20 10 -61 22 -91 25 -47 6 -64 3 -129 -24 l-74 -32
-69 32 c-94 43 -203 150 -250 244 -38 77 -39 83 -20 105 20 24 46 110 46 154
0 34 -18 86 -61 182 -62 137 -245 341 -325 363 -46 13 -43 13 -101 0z m132
-246 c41 -44 88 -102 103 -130 15 -28 40 -75 56 -105 l29 -54 -27 -56 c-14
-31 -26 -65 -26 -76 0 -11 -5 -23 -10 -26 -31 -19 35 -186 115 -293 49 -65
151 -162 170 -162 7 0 20 -9 30 -20 10 -11 24 -20 31 -20 7 0 26 -12 43 -26
27 -23 40 -26 114 -27 74 -2 91 1 145 27 l61 29 76 -39 c42 -21 89 -46 104
-54 16 -8 66 -50 111 -93 67 -65 80 -82 74 -100 -10 -34 -72 -106 -117 -135
-38 -25 -47 -27 -131 -24 -95 2 -168 19 -253 58 -28 13 -58 24 -66 24 -8 0
-20 7 -27 15 -7 8 -40 28 -74 44 -33 16 -70 38 -80 50 -11 11 -25 21 -32 21
-8 0 -38 21 -68 48 -29 26 -88 76 -129 112 -41 36 -87 79 -101 95 -93 108
-155 186 -181 225 -42 64 -115 192 -115 201 0 5 -11 32 -24 61 -37 84 -46 116
-57 222 -9 90 -8 102 10 140 11 24 37 55 58 71 21 16 47 39 57 52 11 13 28 23
37 23 10 0 52 -35 94 -78z"/>
</g>
</svg>
