<?xml version="1.0" standalone="no"?>
<!DOCTYPE svg PUBLIC "-//W3C//DTD SVG 20010904//EN"
 "http://www.w3.org/TR/2001/REC-SVG-20010904/DTD/svg10.dtd">
<svg version="1.0" xmlns="http://www.w3.org/2000/svg"
 width="300.000000pt" height="324.000000pt" viewBox="0 0 300.000000 324.000000"
 preserveAspectRatio="xMidYMid meet">
<metadata>
Created by potrace 1.10, written by Peter Selinger 2001-2011
</metadata>
<g transform="translate(0.000000,324.000000) scale(0.100000,-0.100000)"
fill="#ffffff" stroke="none">
<path d="M1285 2486 c-166 -34 -285 -154 -324 -326 -10 -40 -12 -135 -9 -350
5 -277 6 -298 27 -350 13 -30 31 -64 42 -76 10 -11 19 -25 19 -31 0 -20 79
-81 151 -117 93 -46 168 -55 269 -32 113 26 220 109 271 209 43 84 49 131 49
444 0 318 -3 340 -55 432 -88 153 -267 233 -440 197z m109 -165 c3 -4 23 -11
44 -14 50 -8 116 -65 147 -128 25 -48 25 -50 24 -326 0 -296 -1 -303 -54 -390
-32 -52 -107 -87 -185 -88 -36 0 -77 3 -93 8 -41 11 -104 73 -129 126 -21 44
-22 57 -21 348 0 291 1 302 22 336 26 43 83 95 120 109 21 8 76 21 113 27 4 1
9 -3 12 -8z"/>
<path d="M690 1752 c-16 -17 -30 -39 -30 -49 1 -75 23 -257 35 -280 8 -15 15
-35 15 -44 0 -18 43 -102 69 -135 9 -12 35 -46 58 -76 23 -31 62 -68 87 -84
25 -16 46 -32 46 -36 0 -14 154 -85 210 -98 85 -19 100 -27 100 -52 0 -41 -11
-46 -117 -49 -91 -4 -104 -6 -127 -28 -34 -32 -34 -77 -1 -114 l26 -27 298 0
298 0 21 23 c30 32 30 97 1 123 -17 15 -40 20 -116 22 -89 4 -95 5 -105 28 -9
18 -8 28 0 36 14 14 73 35 126 44 22 3 56 16 76 28 19 12 48 28 64 36 76 39
246 215 246 255 0 5 8 18 18 29 10 12 30 57 45 101 22 68 27 99 28 204 2 124
2 124 -25 148 -33 28 -76 30 -107 4 -20 -16 -24 -31 -30 -122 -11 -138 -21
-183 -61 -259 -49 -94 -129 -170 -240 -227 -93 -47 -93 -47 -215 -51 -98 -4
-127 -1 -154 12 -17 9 -40 16 -51 16 -61 0 -216 127 -267 220 -41 74 -51 96
-51 116 0 12 -7 40 -15 63 -8 23 -14 45 -14 49 1 4 1 42 0 84 -1 86 -12 101
-79 114 -26 5 -36 1 -62 -24z"/>
</g>
</svg>
