<?xml version="1.0" encoding="UTF-8"?>
<svg version="1.1" xmlns="http://www.w3.org/2000/svg" width="200" height="189">
<path d="M0 0 C66 0 132 0 200 0 C200 62.37 200 124.74 200 189 C134 189 68 189 0 189 C0 126.63 0 64.26 0 0 Z " fill="#fff" transform="translate(0,0)"/>
<path d="M0 0 C66 0 132 0 200 0 C200 62.37 200 124.74 200 189 C134 189 68 189 0 189 C0 126.63 0 64.26 0 0 Z M56.55987549 22.8842926 C55.25475687 24.87049248 54.1286694 26.90853594 53 29 C51.94661454 30.81781231 50.88393184 32.63026556 49.8125 34.4375 C49.07966797 35.70400391 49.07966797 35.70400391 48.33203125 36.99609375 C47 39 47 39 45 40 C43.11146009 40.1063631 41.21954822 40.15542605 39.328125 40.17578125 C37.61882813 40.21155273 37.61882813 40.21155273 35.875 40.24804688 C33.47413445 40.29073468 31.07303954 40.32213669 28.671875 40.34179688 C20.05236211 40.54596306 20.05236211 40.54596306 13 45 C12.4225 45.474375 11.845 45.94875 11.25 46.4375 C7.23180123 51.46024846 7.70376669 57.156505 7.70947266 63.26293945 C7.70275543 64.29445129 7.69603821 65.32596313 7.68911743 66.38873291 C7.67012804 69.79696477 7.66621266 73.20499978 7.6640625 76.61328125 C7.65763499 78.9859373 7.65090666 81.35859256 7.64389038 83.73124695 C7.63191507 88.70520871 7.6282098 93.67910101 7.62939453 98.65307617 C7.62959767 105.01850394 7.60230108 111.38348501 7.56785011 117.74880695 C7.54558343 122.64995865 7.54155694 127.55100284 7.54261398 132.45219994 C7.54025747 134.79848965 7.53143119 137.1447823 7.51594925 139.49102211 C7.49629584 142.77728939 7.50212564 146.06259328 7.51416016 149.34887695 C7.50292114 150.31278854 7.49168213 151.27670013 7.48010254 152.26982117 C7.54777112 159.56251255 9.31872793 164.71327939 13.9375 170.375 C18.21575098 173.7457432 22.15643216 174.25173037 27.50776672 174.26742554 C29.48226807 174.28022049 29.48226807 174.28022049 31.49665833 174.29327393 C32.94870007 174.29257495 34.40074172 174.29165192 35.8527832 174.29052734 C37.38732225 174.29651404 38.92185829 174.30331991 40.45639038 174.31088257 C44.61973795 174.3285364 48.78300329 174.33323771 52.94638467 174.33451414 C55.54941616 174.33593675 58.1524268 174.34020846 60.75545311 174.34550858 C69.84210917 174.36400746 78.92870659 174.37217945 88.01538086 174.37060547 C96.47634718 174.3694044 104.93705826 174.39050018 113.39796001 174.4220928 C120.66947543 174.44827363 127.94090758 174.45897199 135.21246976 174.45769465 C139.55214646 174.45718551 143.89159634 174.46284208 148.23122597 174.48405075 C152.3148191 174.50346348 156.39796977 174.50353712 160.48157883 174.48901749 C161.97629508 174.48693197 163.47103924 174.491615 164.96570778 174.5037384 C172.86940674 174.56366963 179.23257415 174.4933937 186 170 C192.01123964 163.83056984 192.30077459 157.94131741 192.30639648 149.73706055 C192.31888176 148.18979279 192.31888176 148.18979279 192.33161926 146.61126709 C192.35570407 143.20304585 192.36448967 139.79501606 192.37109375 136.38671875 C192.38006127 134.01406294 192.38918314 131.6414077 192.39845276 129.26875305 C192.41494122 124.294796 192.42264262 119.32090625 192.42553711 114.34692383 C192.43092042 107.98140893 192.46859996 101.61652875 192.51428127 95.25119305 C192.54406101 90.3500387 192.55126088 85.44903702 192.55226326 80.54780006 C192.55646374 78.20149644 192.56889102 75.85519228 192.58978081 73.50897789 C192.61671243 70.22255489 192.61186335 66.93760099 192.59936523 63.65112305 C192.61419952 62.68721146 192.62903381 61.72329987 192.64431763 60.73017883 C192.55949993 52.87629657 190.03845424 48.05292307 184.5390625 42.52734375 C177.96394327 39.68973711 170.71552069 40.52916497 163.65625 40.59960938 C161.88894531 40.58317383 161.88894531 40.58317383 160.0859375 40.56640625 C158.4779126 40.58102905 158.4779126 40.58102905 156.83740234 40.59594727 C154 40 154 40 151.72875977 37.6640625 C149.10790857 33.62526456 147.02380702 29.363325 144.87890625 25.05859375 C142.19187906 20.68449335 138.74074196 17.91825549 134 16 C130.90377291 15.67655195 130.90377291 15.67655195 127.43066406 15.69360352 C126.7796875 15.68528 126.12871094 15.67695648 125.45800781 15.66838074 C123.31048556 15.64432975 121.16326757 15.63551357 119.015625 15.62890625 C117.51592929 15.61993406 116.01623446 15.6108121 114.51654053 15.60154724 C111.37265858 15.58506653 108.22888298 15.5773592 105.08496094 15.57446289 C101.07224165 15.56908908 97.06053384 15.5314482 93.04809952 15.48571873 C89.94924348 15.45585019 86.85062774 15.44873718 83.75164032 15.44773674 C82.27334729 15.44355147 80.79505242 15.43118553 79.31690216 15.41021919 C70.38468364 15.29363873 62.40421044 15.23742802 56.55987549 22.8842926 Z " fill="#0066cc" transform="translate(0,0)"/>
<path d="M0 0 C0.65097656 -0.00832352 1.30195312 -0.01664703 1.97265625 -0.02522278 C4.1201785 -0.04927376 6.26739649 -0.05808995 8.41503906 -0.06469727 C9.91473478 -0.07366946 11.4144296 -0.08279141 12.91412354 -0.09205627 C16.05800548 -0.10853699 19.20178108 -0.11624432 22.34570312 -0.11914062 C26.35842241 -0.12451444 30.37013022 -0.16215531 34.38256454 -0.20788479 C37.48142058 -0.23775333 40.58003633 -0.24486633 43.67902374 -0.24586678 C45.15731677 -0.25005204 46.63561164 -0.26241799 48.1137619 -0.28338432 C62.0090048 -0.46474059 62.0090048 -0.46474059 67.96368408 3.86607361 C70.78089589 6.63209268 72.60365205 9.83754259 74.43066406 13.30639648 C75.32429994 14.93260596 76.2201241 16.55761492 77.11816406 18.18139648 C77.51390625 18.92131836 77.90964844 19.66124023 78.31738281 20.42358398 C79.41281642 22.4543957 79.41281642 22.4543957 81.43066406 24.30639648 C84.14800961 24.61259168 84.14800961 24.61259168 87.32128906 24.57983398 C88.5059375 24.60045898 89.69058594 24.62108398 90.91113281 24.64233398 C93.40846109 24.66821303 95.90587995 24.68653905 98.40332031 24.69702148 C110.06257458 24.92439589 110.06257458 24.92439589 114.43066406 29.30639648 C119.30451981 35.31931038 120.15442637 40.3084193 120.06176758 47.90991211 C120.07250053 49.45783699 120.07250053 49.45783699 120.08345032 51.03703308 C120.10028233 54.42936218 120.08096562 57.82035952 120.05957031 61.21264648 C120.06039951 63.58101511 120.0628608 65.94938367 120.06687927 68.31774902 C120.06973354 73.27393988 120.05507152 78.2296779 120.02758789 83.18579102 C119.99350657 89.52766424 119.99952732 95.86872798 120.01825047 102.21063995 C120.02883641 107.0989655 120.01986798 111.98710383 120.00486565 116.87541199 C119.99969514 119.21330712 120.00015185 121.5512219 120.0064106 123.88911438 C120.01188184 127.16079517 119.99142493 130.43133068 119.96411133 133.70288086 C119.97390015 135.14167854 119.97390015 135.14167854 119.98388672 136.60954285 C119.88055606 143.91608788 118.31719133 149.49388274 112.99316406 154.68139648 C108.24243326 157.69405504 104.53259617 158.5570144 98.90943909 158.5670929 C96.93060226 158.57772011 96.93060226 158.57772011 94.91178894 158.58856201 C93.45657314 158.58626836 92.00135767 158.58375869 90.54614258 158.58105469 C89.0083593 158.58540352 87.47057819 158.59058724 85.93280029 158.59654236 C81.76131449 158.6099249 77.58991934 158.61051188 73.41841626 158.60797906 C69.93429331 158.60690889 66.45018867 158.61179388 62.96606964 158.61658448 C54.74583912 158.62767699 46.5256543 158.62811845 38.30541992 158.62207031 C29.82855062 158.61602922 21.35184725 158.62834554 12.87500626 158.64964038 C5.59333252 158.66725941 -1.68828842 158.67325728 -8.96998268 158.67000264 C-13.31737503 158.66819019 -17.66464899 158.67082218 -22.01202202 158.68471718 C-26.10047891 158.6972959 -30.18867719 158.6953511 -34.27713013 158.68230629 C-35.77590586 158.67994108 -37.2746998 158.68267323 -38.77345467 158.69092941 C-40.82297803 158.70140383 -42.87163473 158.69329186 -44.92112732 158.68061829 C-46.06687446 158.68078603 -47.21262159 158.68095377 -48.39308834 158.68112659 C-53.5959142 158.06730307 -56.73049037 156.1833714 -60.31933594 152.43139648 C-64.73937864 146.29244828 -64.86272111 141.36764907 -64.84399414 134.01171875 C-64.84910507 132.97699432 -64.854216 131.9422699 -64.85948181 130.87619019 C-64.87337341 127.45833541 -64.87242139 124.04068237 -64.87011719 120.62280273 C-64.87400422 118.24535548 -64.87833891 115.86790892 -64.88310242 113.49046326 C-64.89056361 108.50810494 -64.89027395 103.5258175 -64.88500977 98.54345703 C-64.87921399 92.15996761 -64.89614951 85.77676822 -64.91935444 79.39332676 C-64.93408847 74.48368129 -64.93496393 69.57410573 -64.93184471 64.66444206 C-64.93235804 62.31092695 -64.93759799 59.95740793 -64.94765663 57.60391426 C-64.95999756 54.31257414 -64.95324308 51.02179986 -64.94165039 47.73046875 C-64.953116 46.27381554 -64.953116 46.27381554 -64.96481323 44.78773499 C-64.9182941 38.81004286 -64.29696146 34.22835665 -60.03417969 29.66186523 C-55.52612578 26.21452989 -53.49764434 25.19179075 -47.86230469 25.16577148 C-46.71826172 25.14643555 -45.57421875 25.12709961 -44.39550781 25.10717773 C-41.98161155 25.07348943 -39.56745022 25.05510718 -37.15332031 25.05249023 C-30.39804943 25.0100087 -30.39804943 25.0100087 -24.46386719 22.16967773 C-21.73991492 18.05285916 -19.58291883 13.79165404 -17.41308594 9.36499023 C-13.23419353 2.43263271 -7.81299566 0.07074781 0 0 Z M-9.56933594 15.30639648 C-11.41388682 18.52539674 -13.00986355 21.8126414 -14.62792969 25.15014648 C-16.84873613 28.76063261 -18.66599933 31.56139719 -22.56933594 33.30639648 C-27.09241453 33.94894558 -31.56991157 33.91487875 -36.13183594 33.86889648 C-38.5497479 33.85227414 -40.96785493 33.85290789 -43.38574219 33.87280273 C-44.98591187 33.85648804 -44.98591187 33.85648804 -46.6184082 33.83984375 C-50.53569788 34.45918193 -51.89535495 35.3503739 -54.56933594 38.30639648 C-55.32651279 41.67135844 -55.2418439 44.99070705 -55.20043945 48.42749023 C-55.20759476 49.45552765 -55.21475006 50.48356506 -55.22212219 51.54275513 C-55.23904159 54.94358654 -55.21958649 58.3431058 -55.19824219 61.74389648 C-55.19907058 64.10514434 -55.20152884 66.46639214 -55.20555115 68.82763672 C-55.20841139 73.77743884 -55.19368513 78.72678904 -55.16625977 83.67651367 C-55.13217729 90.02562175 -55.13819343 96.37392148 -55.15692234 102.72306824 C-55.16748394 107.59923048 -55.15856201 112.47520418 -55.14353752 117.35134888 C-55.13834912 119.69255005 -55.13884545 122.03377087 -55.14508247 124.37496948 C-55.15052431 127.64551222 -55.1301912 130.9148924 -55.1027832 134.18530273 C-55.10930908 135.15581573 -55.11583496 136.12632874 -55.12255859 137.12625122 C-55.10983414 138.01786957 -55.09710968 138.90948792 -55.08399963 139.828125 C-55.08119271 140.600923 -55.07838579 141.37372101 -55.07549381 142.16993713 C-54.34143853 145.26833656 -53.11228148 146.4238155 -50.56933594 148.30639648 C-47.57728508 148.90713579 -47.57728508 148.90713579 -44.19287109 148.81433105 C-42.88054504 148.82561035 -41.56821899 148.83688965 -40.21612549 148.84851074 C-38.7635476 148.84073367 -37.31097189 148.832541 -35.85839844 148.82397461 C-34.32736546 148.82939523 -32.7963377 148.83651756 -31.26531982 148.84521484 C-27.10826594 148.86345846 -22.9516089 148.85637655 -18.79454803 148.8436985 C-14.44554062 148.83357615 -10.09656733 148.84296205 -5.74755859 148.84924316 C1.55605169 148.85652181 8.85950021 148.84692621 16.16308594 148.82788086 C24.60879924 148.80611164 33.05412631 148.81316286 41.49983025 148.83518648 C48.74920395 148.85333434 55.99846134 148.85590183 63.24785042 148.8454318 C67.57844499 148.83919347 71.90885799 148.83837051 76.23944092 148.85157776 C80.31073856 148.86312678 84.38153791 148.85512832 88.45278168 148.83200073 C89.94754966 148.8267085 91.44235954 148.82823626 92.9371109 148.83705139 C94.97612518 148.84796823 97.01523102 148.83185576 99.05419922 148.81433105 C100.19571442 148.81282295 101.33722961 148.81131485 102.51333618 148.80976105 C106.11488277 148.18833932 107.29653069 147.23965581 109.43066406 144.30639648 C110.02518868 142.17593833 110.02518868 142.17593833 109.94532776 139.87281799 C109.96441444 138.55017944 109.96441444 138.55017944 109.98388672 137.20082092 C109.9740979 135.7614341 109.9740979 135.7614341 109.96411133 134.29296875 C109.9727269 133.2762912 109.98134247 132.25961365 109.99021912 131.21212769 C110.01293633 127.84876096 110.00612913 124.48622359 109.99707031 121.12280273 C110.00230351 118.78636934 110.00857887 116.44993806 110.01585388 114.11351013 C110.02626891 109.21505803 110.02168084 104.31689621 110.00708008 99.41845703 C109.9898955 93.13886712 110.01337876 86.86019244 110.04856968 80.58070469 C110.0705234 75.75512113 110.06910694 70.92975721 110.06080437 66.10413933 C110.05998366 63.78886855 110.06686981 61.47358184 110.08157539 59.15835762 C110.09898195 55.92140481 110.08450935 52.68610484 110.06176758 49.44921875 C110.07345978 48.49165176 110.08515198 47.53408478 110.09719849 46.54750061 C110.03179859 41.97570168 109.91890891 39.9482644 107.0766449 36.21170044 C103.87587915 33.90690988 102.12886196 33.68055815 98.21191406 33.66967773 C97.03242188 33.64969727 95.85292969 33.6297168 94.63769531 33.60913086 C92.80271484 33.61396484 92.80271484 33.61396484 90.93066406 33.61889648 C88.50351158 33.60227215 86.07639702 33.57783324 83.64941406 33.54467773 C82.57626953 33.54508057 81.503125 33.5454834 80.39746094 33.54589844 C77.33418604 33.29860806 75.1708788 32.67542878 72.43066406 31.30639648 C71.36425781 29.65795898 71.36425781 29.65795898 70.43066406 27.30639648 C69.82833251 26.10034472 69.2137232 24.90039082 68.59082031 23.70483398 C68.24986328 23.04999023 67.90890625 22.39514648 67.55761719 21.72045898 C67.20634766 21.04756836 66.85507813 20.37467773 66.49316406 19.68139648 C66.14576172 19.00077148 65.79835938 18.32014648 65.44042969 17.61889648 C63.69296754 14.28851665 62.61454458 12.4289835 59.43066406 10.30639648 C56.57507318 9.98090724 56.57507318 9.98090724 53.29443359 10 C52.02947052 9.9840126 50.76450745 9.96802521 49.46121216 9.95155334 C48.07863772 9.94517661 46.69605844 9.93978388 45.31347656 9.93530273 C43.89484563 9.92633499 42.47621566 9.91721311 41.05758667 9.90794373 C38.08345238 9.89145495 35.10943064 9.8837539 32.13525391 9.88085938 C28.32957394 9.87547666 24.52495603 9.837803 20.71957588 9.79211521 C17.78897264 9.76232812 14.8586246 9.75513548 11.92788315 9.75413322 C10.52525851 9.74993379 9.12263291 9.73751028 7.72015762 9.71661568 C5.75551503 9.68967665 3.79048841 9.69763783 1.82568359 9.70703125 C0.70888214 9.7019606 -0.40791931 9.69688995 -1.55856323 9.69166565 C-5.54635513 10.50588143 -7.00185616 12.22102757 -9.56933594 15.30639648 Z " fill="#0066cc" transform="translate(72.5693359375,15.693603515625)"/>
<path d="M0 0 C10.54140337 6.07976617 17.79380324 14.05183048 21.25 25.8125 C23.54375171 36.53057619 22.01319131 47.36991205 16.3046875 56.80078125 C10.09692067 65.08199246 1.44637697 72.27168287 -9 74 C-20.59268386 75.08949194 -30.01934558 74.03717677 -39.75 67.015625 C-47.37546257 60.6156832 -53.86640368 52.19637629 -55.26806641 42.06176758 C-56.3375476 29.14815871 -54.16639308 19.87650614 -46.0703125 9.53515625 C-34.44756181 -2.99780986 -15.75114457 -7.44169268 0 0 Z " fill="#fff" transform="translate(117,68)"/>
<path d="M0 0 C9.61761731 8.78064112 16.04988557 19.99126036 17.28515625 33.00390625 C17.82205735 45.10483106 15.37830153 57.37720087 7.8125 67.0625 C-2.37941471 78.12752767 -13.73649141 85.18138325 -29.04296875 86.203125 C-43.48160919 86.41835939 -55.56540187 82.39470491 -66.25 72.4375 C-77.23771153 60.83741601 -80.75571027 48.09120021 -80.375 32.62109375 C-79.75132138 21.85595528 -75.24905575 12.8636496 -68 5 C-67.48953125 4.38769531 -66.9790625 3.77539062 -66.453125 3.14453125 C-49.40024177 -15.97664723 -19.14770034 -15.39498747 0 0 Z M-62 13 C-63.96391322 15.55403138 -65.58584129 18.1076452 -67 21 C-67.52722656 22.05574219 -68.05445313 23.11148438 -68.59765625 24.19921875 C-72.12128142 32.5908196 -71.1923402 44.15014949 -68.0625 52.5 C-62.74816904 63.27794088 -54.24977022 70.68638038 -43.1796875 75.1328125 C-33.27529556 77.8340103 -22.03977765 76.83656893 -13 72 C-4.12389112 66.66273192 2.94855434 58.48136432 6 48.5 C8.41915806 37.33708765 7.34241662 26.42485743 1.4921875 16.421875 C-5.09199283 7.41839119 -13.89355888 0.83787043 -25 -1 C-40.36393343 -2.25493039 -51.44116567 1.41245571 -62 13 Z " fill="#0066cc" transform="translate(132,66)"/>
</svg>
