<?xml version="1.0" standalone="no"?>
<!DOCTYPE svg PUBLIC "-//W3C//DTD SVG 20010904//EN"
 "http://www.w3.org/TR/2001/REC-SVG-20010904/DTD/svg10.dtd">
<svg version="1.0" xmlns="http://www.w3.org/2000/svg"
 width="516.000000pt" height="468.000000pt" viewBox="0 0 516.000000 468.000000"
 preserveAspectRatio="xMidYMid meet">
<metadata>
Created by potrace 1.10, written by Peter Selinger 2001-2011
</metadata>
<g transform="translate(0.000000,468.000000) scale(0.100000,-0.100000)"
fill="#fff" stroke="none">
<path d="M1817 3125 c-98 -20 -182 -75 -213 -140 -8 -16 -22 -43 -32 -60 -15
-27 -17 -83 -20 -598 -3 -636 -5 -616 69 -714 46 -61 108 -101 188 -119 76
-18 956 -19 1046 -1 65 13 130 51 182 107 35 38 72 133 74 189 1 20 4 47 8 59
l6 24 30 -28 c16 -15 57 -40 92 -56 57 -27 66 -28 100 -18 85 27 123 50 150
91 l28 43 3 384 c3 377 2 386 -19 438 -20 49 -28 56 -91 90 -62 32 -74 35
-119 29 -35 -5 -69 -20 -110 -48 -32 -22 -61 -38 -64 -35 -4 3 -9 32 -12 64
-7 66 -46 154 -94 209 -34 39 -106 76 -182 94 -72 17 -931 13 -1020 -4z m1056
-190 c20 -14 46 -44 56 -66 19 -38 20 -66 20 -542 0 -314 -4 -517 -10 -543
-13 -51 -69 -110 -118 -125 -24 -7 -197 -9 -518 -7 l-482 3 -45 44 c-24 24
-47 56 -50 73 -3 16 -6 263 -6 549 -1 581 -2 568 69 614 l36 24 505 0 505 1
38 -25z m477 -291 c6 -14 10 -158 10 -334 0 -176 -4 -320 -10 -334 -17 -45
-48 -32 -142 58 l-88 83 -1 169 c-1 93 -1 178 0 189 1 11 42 59 90 108 95 94
124 107 141 61z"/>
</g>
</svg>
