<?xml version="1.0" standalone="no"?>
<!DOCTYPE svg PUBLIC "-//W3C//DTD SVG 20010904//EN"
 "http://www.w3.org/TR/2001/REC-SVG-20010904/DTD/svg10.dtd">
<svg version="1.0" xmlns="http://www.w3.org/2000/svg"
 width="675.000000pt" height="675.000000pt" viewBox="0 0 675.000000 675.000000"
 preserveAspectRatio="xMidYMid meet">
<metadata>
Created by potrace 1.10, written by Peter Selinger 2001-2011
</metadata>
<g transform="translate(0.000000,675.000000) scale(0.100000,-0.100000)"
fill="#ffffff" stroke="none">
<path d="M5165 6359 c-27 -11 -66 -32 -85 -47 -19 -14 -808 -797 -1752 -1740
-1610 -1609 -1717 -1718 -1728 -1761 -6 -25 -16 -95 -21 -156 -5 -60 -14 -128
-19 -150 -5 -22 -10 -68 -10 -102 0 -34 -7 -97 -15 -140 -8 -43 -15 -100 -15
-128 0 -27 -7 -88 -15 -135 -23 -124 -23 -298 0 -347 30 -63 52 -89 112 -130
l58 -38 110 1 c109 1 331 22 515 50 53 8 123 14 156 14 32 0 75 4 94 10 19 5
77 12 130 16 52 3 113 10 136 15 36 10 229 199 1776 1747 1431 1431 1741 1747
1764 1792 26 50 29 65 28 155 0 164 9 152 -454 616 -217 218 -413 407 -435
421 -98 61 -234 76 -330 37z m308 -531 c469 -458 527 -517 527 -534 0 -21
-397 -424 -418 -424 -8 0 -174 160 -369 356 l-356 356 209 209 c115 115 214
209 219 209 6 0 90 -78 188 -172z m-520 -876 c191 -191 347 -354 347 -362 0
-8 -591 -606 -1313 -1328 l-1313 -1313 -124 -10 c-69 -5 -141 -14 -160 -19
-19 -6 -55 -10 -79 -10 -40 0 -220 -20 -356 -40 -72 -10 -85 0 -79 63 6 50 29
256 49 422 8 66 17 156 21 200 3 43 10 90 15 102 5 13 325 341 712 730 387
390 973 979 1302 1311 329 331 605 602 614 602 9 0 172 -157 364 -348z"/>
<path d="M1220 5954 c-127 -19 -250 -55 -320 -95 -8 -5 -25 -14 -38 -19 -80
-34 -242 -173 -318 -272 -24 -31 -44 -59 -44 -62 0 -3 -13 -24 -28 -48 -16
-24 -36 -63 -46 -88 -10 -25 -22 -52 -26 -61 -4 -8 -19 -56 -32 -105 l-23 -89
0 -1965 c0 -1885 1 -1968 19 -2030 26 -91 76 -222 92 -241 8 -8 14 -19 14 -22
0 -17 94 -141 155 -205 99 -105 270 -213 395 -249 25 -8 81 -22 125 -33 78
-19 135 -19 1991 -20 1829 0 1915 1 2000 19 168 35 284 86 410 180 210 157
341 372 393 647 8 42 11 394 11 1201 0 1027 -2 1144 -16 1179 -41 99 -164 144
-257 94 -48 -26 -68 -47 -89 -93 -17 -35 -18 -113 -18 -1186 l0 -1147 -25 -74
c-64 -189 -208 -340 -391 -412 l-59 -23 -1897 -3 c-1120 -1 -1926 1 -1965 7
-104 14 -200 59 -293 136 -90 75 -181 212 -201 305 -4 19 -12 53 -18 75 -14
52 -14 3672 -1 3765 19 130 51 219 103 290 74 102 185 186 317 242 l55 23
1165 6 c641 3 1179 9 1195 13 38 11 93 62 111 103 41 94 -6 208 -100 247 -35
14 -153 16 -1180 15 -627 -1 -1152 -3 -1166 -5z"/>
</g>
</svg>
