<?xml version="1.0" standalone="no"?>
<!DOCTYPE svg PUBLIC "-//W3C//DTD SVG 20010904//EN"
 "http://www.w3.org/TR/2001/REC-SVG-20010904/DTD/svg10.dtd">
<svg version="1.0" xmlns="http://www.w3.org/2000/svg"
 width="900.000000pt" height="900.000000pt" viewBox="0 0 900.000000 900.000000"
 preserveAspectRatio="xMidYMid meet">
<metadata>
Created by potrace 1.10, written by Peter Selinger 2001-2011
</metadata>
<g transform="translate(0.000000,900.000000) scale(0.100000,-0.100000)"
fill="#ffffff" stroke="none">
<path d="M1080 7304 c-223 -33 -257 -44 -405 -129 -76 -44 -216 -174 -259
-243 -74 -118 -108 -206 -131 -342 -22 -128 -22 -4085 0 -4205 23 -128 44
-186 104 -289 99 -172 283 -318 476 -379 138 -43 91 -42 2220 -42 2158 0 2085
-2 2230 47 158 52 305 156 402 285 94 125 130 205 163 362 18 84 20 133 20
522 0 239 4 429 9 429 8 0 81 -48 574 -381 142 -96 269 -181 282 -189 13 -8
178 -118 367 -245 333 -224 364 -243 438 -272 117 -46 154 -53 291 -53 97 0
152 5 190 16 172 51 251 98 403 239 21 19 98 120 123 160 26 41 83 166 83 181
0 8 5 24 11 35 5 11 17 63 25 116 12 81 14 335 14 1563 0 1540 -1 1563 -44
1701 -14 45 -64 154 -89 194 -25 40 -102 141 -123 160 -153 142 -233 189 -405
239 -77 22 -296 22 -370 0 -61 -18 -117 -39 -169 -63 -19 -9 -189 -120 -378
-246 -189 -127 -354 -237 -367 -245 -21 -13 -293 -196 -639 -430 -66 -44 -121
-80 -124 -80 -2 0 -21 -13 -42 -30 -21 -16 -43 -30 -49 -30 -8 0 -11 122 -11
429 0 389 -2 438 -20 522 -33 157 -69 238 -161 359 -65 86 -89 109 -177 173
-95 69 -195 113 -332 145 -57 14 -312 16 -2085 18 -1111 1 -2031 0 -2045 -2z
m4071 -583 c67 -30 128 -87 155 -147 l24 -53 0 -2031 0 -2031 -24 -54 c-28
-60 -92 -120 -159 -147 -39 -16 -175 -17 -2065 -17 l-2023 -1 -53 24 c-70 32
-136 107 -159 178 -16 51 -17 187 -17 2050 0 2250 -7 2055 79 2150 25 28 67
60 95 74 l51 23 2026 1 c1983 0 2027 0 2070 -19z m2842 -521 c60 -40 112 -113
137 -190 20 -61 20 -92 20 -1520 0 -1428 0 -1459 -20 -1520 -25 -77 -77 -149
-138 -192 -43 -29 -54 -32 -127 -32 l-80 -1 -238 160 c-131 88 -249 167 -262
175 -13 8 -245 164 -514 345 -270 182 -501 336 -514 343 -12 7 -96 64 -187
125 l-165 113 0 484 0 484 165 113 c91 61 175 118 188 125 12 7 239 159 505
337 884 594 1012 679 1037 684 14 3 53 4 86 2 48 -3 71 -11 107 -35z"/>
</g>
</svg>
