<?xml version="1.0" encoding="utf-8"?>
<!-- Generator: Adobe Illustrator 15.0.0, SVG Export Plug-In . SVG Version: 6.00 Build 0)  -->
<!DOCTYPE svg PUBLIC "-//W3C//DTD SVG 1.1//EN" "http://www.w3.org/Graphics/SVG/1.1/DTD/svg11.dtd">
<svg version="1.1" id="Layer_1" xmlns="http://www.w3.org/2000/svg" xmlns:xlink="http://www.w3.org/1999/xlink" x="0px" y="0px"
	 width="337.239px" height="390.353px" viewBox="0 0 337.239 390.353" enable-background="new 0 0 337.239 390.353"
	 xml:space="preserve">
<g>
	<polygon fill="#00983A" stroke="#000000" stroke-width="0.25" stroke-miterlimit="10" points="252.945,243.366 252.945,243.396 
		337.239,292.055 337.239,389.409 252.945,340.75 168.62,292.055 168.62,194.706 252.916,146.015 252.945,146.015 337.239,97.353 
		337.239,194.706 	"/>
	<polygon fill="#EDEDED" stroke="#000000" stroke-width="0.25" stroke-miterlimit="10" points="337.239,97.353 252.945,146.015 
		252.916,146.015 168.62,97.353 168.62,0 252.945,48.661 	"/>
	<polygon fill="#E30613" stroke="#000000" stroke-width="0.25" stroke-miterlimit="10" points="168.62,97.353 84.294,146.015 
		168.62,194.706 168.62,292.055 84.294,340.75 0,389.409 0,292.026 84.294,243.366 0,194.706 0,97.353 84.294,48.661 168.62,0 	"/>
</g>
</svg>
