<?xml version="1.0" encoding="utf-8"?>
<!-- Generator: Adobe Illustrator 15.0.0, SVG Export Plug-In . SVG Version: 6.00 Build 0)  -->
<!DOCTYPE svg PUBLIC "-//W3C//DTD SVG 1.1//EN" "http://www.w3.org/Graphics/SVG/1.1/DTD/svg11.dtd">
<svg version="1.1" id="Layer_1" xmlns="http://www.w3.org/2000/svg" xmlns:xlink="http://www.w3.org/1999/xlink" x="0px" y="0px"
	 width="595.28px" height="841.89px" viewBox="0 0 595.28 841.89" enable-background="new 0 0 595.28 841.89" xml:space="preserve">
<g>
	<polygon fill="#00983A" stroke="#000000" stroke-width="0.25" stroke-miterlimit="10" points="463.551,422.039 463.551,422.049 
		491.891,438.408 491.891,471.139 463.551,454.779 435.201,438.408 435.201,405.679 463.541,389.309 463.551,389.309 
		491.891,372.949 491.891,405.679 	"/>
	<polygon fill="#EDEDED" stroke="#000000" stroke-width="0.25" stroke-miterlimit="10" points="491.891,372.949 463.551,389.309 
		463.541,389.309 435.201,372.949 435.201,340.219 463.551,356.579 	"/>
	<polygon fill="#E30613" stroke="#000000" stroke-width="0.25" stroke-miterlimit="10" points="435.201,372.949 406.851,389.309 
		435.201,405.679 435.201,438.408 406.851,454.779 378.511,471.139 378.511,438.398 406.851,422.039 378.511,405.679 
		378.511,372.949 406.851,356.579 435.201,340.219 	"/>
</g>
</svg>
