<?xml version="1.0" encoding="utf-8"?>
<!-- Generator: Adobe Illustrator 15.0.0, SVG Export Plug-In . SVG Version: 6.00 Build 0)  -->
<!DOCTYPE svg PUBLIC "-//W3C//DTD SVG 1.1//EN" "http://www.w3.org/Graphics/SVG/1.1/DTD/svg11.dtd">
<svg version="1.1" id="Layer_1" xmlns="http://www.w3.org/2000/svg" xmlns:xlink="http://www.w3.org/1999/xlink" x="0px" y="0px"
	 width="113.38px" height="130.919px" viewBox="0 0 113.38 130.919" enable-background="new 0 0 113.38 130.919"
	 xml:space="preserve">
<g>
	<polygon fill="#00983A" stroke="#000000" stroke-width="0.25" stroke-miterlimit="10" points="85.04,81.82 85.04,81.83 
		113.38,98.189 113.38,130.919 85.04,114.56 56.69,98.189 56.69,65.46 85.03,49.09 85.04,49.09 113.38,32.73 113.38,65.46 	"/>
	<polygon fill="#EDEDED" stroke="#000000" stroke-width="0.25" stroke-miterlimit="10" points="113.38,32.73 85.04,49.09 
		85.03,49.09 56.69,32.73 56.69,0 85.04,16.36 	"/>
	<polygon fill="#E30613" stroke="#000000" stroke-width="0.25" stroke-miterlimit="10" points="56.69,32.73 28.34,49.09 
		56.69,65.46 56.69,98.189 28.34,114.56 0,130.919 0,98.179 28.34,81.82 0,65.46 0,32.73 28.34,16.36 56.69,0 	"/>
</g>
</svg>
