<?xml version="1.0" encoding="utf-8"?>
<!-- Generator: Adobe Illustrator 15.0.0, SVG Export Plug-In . SVG Version: 6.00 Build 0)  -->
<!DOCTYPE svg PUBLIC "-//W3C//DTD SVG 1.1//EN" "http://www.w3.org/Graphics/SVG/1.1/DTD/svg11.dtd">
<svg version="1.1" id="Layer_1" xmlns="http://www.w3.org/2000/svg" xmlns:xlink="http://www.w3.org/1999/xlink" x="0px" y="0px"
	 width="688.029px" height="246.824px" viewBox="0 0 688.029 246.824" enable-background="new 0 0 688.029 246.824"
	 xml:space="preserve">
<g>
	<path fill="#E1432E" d="M87.04,27.873c11.455,0,22.108,3.409,31.023,9.251l19.813-20.261C123.694,6.271,106.1,0,87.04,0
		C57.747,0,31.915,14.814,16.622,37.356l20.835,19.721C47.131,39.663,65.706,27.873,87.04,27.873z"/>
	<path fill="#5B7EBF" d="M170.155,103.042c-4.34,20.14-15.81,37.62-31.65,49.68l-21.3-20.159c10.83-6.83,19.19-17.21,23.43-29.521
		H170.155z"/>
	<path fill="#49A84B" d="M87.04,141.259c-22.28,0-41.549-12.859-50.815-31.554l-19.57,23.064
		c15.299,22.516,41.112,37.311,70.387,37.311c19.348,0,37.178-6.474,51.467-17.355l-21.303-20.164
		C108.465,138.063,98.128,141.259,87.04,141.259z"/>
	<path fill="#F4BC18" d="M30.346,84.566c0-9.976,2.586-19.345,7.11-27.488L16.622,37.356C7.394,50.956,2,67.367,2,85.04
		c0,17.693,5.407,34.121,14.653,47.729l19.57-23.064C32.468,102.127,30.346,93.596,30.346,84.566z"/>
	<path fill="#5B7EBF" d="M172.075,85.042c0,6.18-0.67,12.19-1.92,18h-83.11v-34h83.51C171.545,74.222,172.075,79.572,172.075,85.042
		z"/>
</g>
<g>
	<path fill="#E1432E" d="M233.514,68.823c-28.179,0-51.022,22.844-51.022,51.023c0,28.179,22.845,51.022,51.022,51.022
		c28.18,0,51.024-22.844,51.024-51.022C284.538,91.667,261.694,68.823,233.514,68.823z M233.515,148.193
		c-15.656,0-28.347-12.689-28.347-28.347c0-15.655,12.689-28.347,28.347-28.347c15.655,0,28.346,12.691,28.346,28.347
		C261.861,135.501,249.17,148.193,233.515,148.193z"/>
</g>
<g>
	<path fill="#F4BC18" d="M344.211,68.032c-28.181,0-51.023,22.844-51.023,51.023c0,28.179,22.844,51.022,51.023,51.022
		c28.179,0,51.022-22.844,51.022-51.022C395.234,90.876,372.391,68.032,344.211,68.032z M344.211,147.402
		c-15.656,0-28.347-12.689-28.347-28.347c0-15.655,12.689-28.347,28.347-28.347c15.656,0,28.346,12.691,28.346,28.347
		C372.557,134.712,359.867,147.402,344.211,147.402z"/>
</g>
<g>
	<path fill="#5B7EBF" d="M493.395,75.852v12.09c-9.17-8.82-21.63-14.24-35.36-14.24c-28.18,0-51.02,22.84-51.02,51.02
		c0,28.181,22.84,51.021,51.02,51.021c13.73,0,26.19-5.42,35.36-14.24v39.021c-0.38,2.59-1.14,5.17-2.3,7.67
		c-6.53,14.069-23.23,20.189-37.311,13.66c-6.71-3.11-11.609-8.54-14.189-14.9l-21.771,5.07c4.141,13.239,13.641,24.75,27.221,31.05
		c25.56,11.859,55.899,0.75,67.76-24.811c2.67-5.77,4.18-11.77,4.61-17.739V75.852H493.395z M462.034,156.902
		c-17.22,0-31.18-13.96-31.18-31.181c0-17.22,13.96-31.18,31.18-31.18c17.221,0,31.181,13.96,31.181,31.18
		C493.215,142.942,479.255,156.902,462.034,156.902z"/>
</g>
<g>
	<path fill="#5B7EBF" d="M517.415,200.522v-7.311C517.595,195.631,517.595,198.072,517.415,200.522z"/>
</g>
<rect x="539.731" y="22.318" fill="#49A84B" width="26.421" height="149.443"/>
<g>
	<path fill="#E1432E" d="M637.845,144.522c-4.86,0-9.42-1.221-13.42-3.37l41.649-22.37l21.95-11.8
		c-1.64-9.01-5.64-17.19-11.35-23.89c-9.36-10.97-23.28-17.94-38.83-17.94c-28.18,0-51.021,22.85-51.021,51.03
		c0,4.89,0.7,9.62,1.99,14.1c2.51,8.74,7.29,16.51,13.66,22.649c9.17,8.83,21.63,14.271,35.37,14.271
		c17.21,0,32.42-8.53,41.67-21.58l-19.33-12C654.995,140.261,646.925,144.522,637.845,144.522z M637.845,87.832
		c6.84,0,13.1,2.42,18,6.45l-46.2,24.81c-0.09-0.96-0.14-1.93-0.14-2.91C609.505,100.521,622.195,87.832,637.845,87.832z"/>
</g>
</svg>
