<?xml version="1.0" encoding="utf-8"?>
<!-- Generator: Adobe Illustrator 15.0.0, SVG Export Plug-In . SVG Version: 6.00 Build 0)  -->
<!DOCTYPE svg PUBLIC "-//W3C//DTD SVG 1.1//EN" "http://www.w3.org/Graphics/SVG/1.1/DTD/svg11.dtd">
<svg version="1.1" id="Layer_1" xmlns="http://www.w3.org/2000/svg" xmlns:xlink="http://www.w3.org/1999/xlink" x="0px" y="0px"
	 width="595.28px" height="841.89px" viewBox="0 0 595.28 841.89" enable-background="new 0 0 595.28 841.89" xml:space="preserve">
<g>
	<path stroke="#000000" stroke-miterlimit="10" d="M292.73,371.464l19.727,28.552c21.472-20.632,34.839-49.637,34.839-81.767
		c0-62.621-50.765-113.386-113.386-113.386S120.524,255.629,120.524,318.25s50.764,113.386,113.385,113.386
		c17.233,0,33.564-3.852,48.191-10.729l-19.688-28.496L292.73,371.464z M157.375,318.25c0-42.269,34.268-76.535,76.536-76.535
		c42.268,0,76.536,34.266,76.536,76.535s-34.268,76.535-76.536,76.535C191.643,394.785,157.375,360.519,157.375,318.25z"/>
	<path d="M392.519,515.896l-80.062-115.88c-8.861,8.514-19.104,15.598-30.356,20.89l80.101,115.937L392.519,515.896z"/>
	<path d="M292.73,371.464l-30.317,20.946l19.688,28.496c11.253-5.292,21.495-12.376,30.356-20.89L292.73,371.464z"/>
</g>
<ellipse cx="377.361" cy="526.055" rx="18.194" ry="18.492"/>
</svg>
